<svg xmlns="http://www.w3.org/2000/svg" viewBox="0 0 852 390" role="img" aria-labelledby="title">
  <title id="title">Mono Admin</title>
  <defs>
    <linearGradient id="smile-gradient" x1="0" y1="0" x2="1" y2="0">
      <stop offset="0" stop-color="#ffb000"/>
      <stop offset="0.45" stop-color="#ff316b"/>
      <stop offset="1" stop-color="#9f27e8"/>
    </linearGradient>
  </defs>
  <path fill="rgb(2,1,1)" stroke="rgb(2,1,1)" stroke-width="0" opacity="1" d="M 75.5 9 Q 96.4 7.1 110.5 12 Q 127.9 18.6 139 31.5 L 140.5 34 Q 152.5 20.5 170.5 13 Q 185.1 7.1 207.5 9 Q 234.8 13.2 249 30.5 Q 261.9 45.1 265 69.5 L 265 170.5 L 261.5 173 L 229.5 173 L 227 172 L 226 169.5 L 226 73.5 Q 223.4 59.1 214.5 51 Q 206.6 42.9 189.5 44 Q 174.8 47.3 167 57.5 L 160 73.5 L 159 170.5 L 156.5 173 L 123.5 173 L 121 172 L 120 169.5 L 120 74.5 Q 117.7 58.8 107.5 51 Q 99.2 43.3 82.5 44 Q 68.8 46.3 62 55.5 Q 55.1 63.1 54 76.5 L 54 170.5 L 52.5 172 L 18.5 173 L 15 170.5 L 15 69.5 Q 19.3 39.3 38.5 24 Q 52.6 12.1 75.5 9 Z " />
  <path fill="rgb(2,1,1)" stroke="rgb(2,1,1)" stroke-width="0" opacity="1" d="M 371.5 9 Q 393.7 7.3 409.5 12 Q 430.1 18.9 444 32.5 Q 467.2 52.8 468 95.5 Q 464.4 135.4 440.5 155 Q 426.6 168.1 405.5 174 Q 392 178 373.5 177 Q 334.9 172.6 316 148.5 Q 303.3 134.7 298 113.5 Q 294.6 100.4 296 82.5 Q 301.4 48.9 322.5 31 Q 339.9 12.9 371.5 9 Z M 376 44 Q 361 47 352 55 Q 337 66 334 90 Q 334 111 344 123 Q 354 135 372 140 Q 397 143 410 132 Q 425 121 429 99 Q 430 72 417 60 L 398 46 Q 389 43 376 44 Z " />
  <path fill="rgb(2,1,1)" stroke="rgb(2,1,1)" stroke-width="0" opacity="1" d="M 558.5 9 Q 581.2 7.3 597.5 12 Q 617 18.5 629 32.5 Q 641.6 46.9 645 70.5 L 645 170.5 L 642.5 173 L 609.5 173 L 607 172 L 606 169.5 L 606 75.5 Q 603.7 59.8 593.5 52 Q 584 43 564.5 44 Q 547.5 46.5 540 58.5 Q 534.3 66.2 533 78.5 L 533 170.5 L 531.5 172 L 497.5 173 L 495 170.5 L 494 134.5 L 495 124.5 L 494 122.5 L 495 100.5 L 494 92.5 L 494 90.5 L 495 69.5 L 499 53.5 Q 504.9 37.4 516.5 27 Q 532.1 12.6 558.5 9 Z " />
  <path fill="rgb(2,1,1)" stroke="rgb(2,1,1)" stroke-width="0" opacity="1" d="M 746.5 9 Q 772.6 6.9 789.5 14 Q 809.8 22.2 823 37.5 Q 843.9 57.6 843 99.5 Q 838.3 139.8 812.5 159 Q 790.8 177.8 749.5 177 Q 710.6 172.9 692 148.5 Q 670.6 126.9 672 82.5 Q 678.1 45.6 702.5 27 Q 719.1 12.6 746.5 9 Z M 752 44 Q 736 47 727 56 Q 713 67 711 90 Q 712 114 724 127 Q 733 137 749 140 Q 774 143 786 132 Q 801 121 805 99 Q 806 72 793 60 L 774 46 Q 765 43 752 44 Z " />
  <path fill="url(#smile-gradient)" stroke="url(#smile-gradient)" stroke-width="0" opacity="1" d="M 14.5 232 L 19.5 232 Q 60.8 255.2 107.5 273 Q 158 292.5 214.5 306 Q 273.5 320 339.5 327 Q 387.2 331.8 440.5 331 Q 491.8 329.8 537.5 323 Q 594.2 314.7 645.5 301 L 730.5 273 Q 776.8 255.3 817.5 232 L 822.5 232 L 827 235.5 L 828 241.5 L 823.5 247 Q 741.4 309.9 632.5 346 Q 582.4 362.4 525.5 372 Q 471.2 381.2 407.5 381 Q 351.4 379.6 302.5 371 Q 242.1 360.4 189.5 342 Q 86.2 306.3 10 243.5 L 9 238.5 L 12.5 233 L 14.5 232 Z " />
</svg>
